<svg width="24" height="31" viewBox="0 0 24 31" fill="none" xmlns="http://www.w3.org/2000/svg">
<path d="M0 26.2821V24.6154H2.6925V11.4104C2.6925 9.23291 3.38153 7.31778 4.75958 5.665C6.13792 4.01222 7.88472 2.98292 10 2.57708V1.66667C10 1.20361 10.1617 0.810138 10.485 0.486249C10.8083 0.162083 11.201 0 11.6629 0C12.1249 0 12.5188 0.162083 12.8446 0.486249C13.1704 0.810138 13.3333 1.20361 13.3333 1.66667V2.57708C15.4486 2.98292 17.1954 4.01222 18.5738 5.665C19.9518 7.31778 20.6408 9.23291 20.6408 11.4104V24.6154H23.3333V26.2821H0ZM11.6608 30.6408C10.9189 30.6408 10.2857 30.3772 9.76125 29.85C9.23653 29.3228 8.97417 28.689 8.97417 27.9487H14.3592C14.3592 28.6946 14.0949 29.3297 13.5663 29.8542C13.0379 30.3786 12.4028 30.6408 11.6608 30.6408ZM4.35917 24.6154H18.9742V11.4104C18.9742 9.38458 18.2626 7.66014 16.8396 6.23708C15.4165 4.81403 13.6922 4.1025 11.6667 4.1025C9.64111 4.1025 7.91681 4.81403 6.49375 6.23708C5.07069 7.66014 4.35917 9.38458 4.35917 11.4104V24.6154Z" fill="#E3E3E3"/>
</svg>
