<svg width="30" height="29" viewBox="0 0 30 29" fill="none" xmlns="http://www.w3.org/2000/svg">
<path d="M5.83333 17.5H17.5V15.8333H5.83333V17.5ZM5.83333 12.5H24.1667V10.8333H5.83333V12.5ZM5.83333 7.5H24.1667V5.83333H5.83333V7.5ZM0 28.4617V2.6925C0 1.92528 0.256944 1.28472 0.770833 0.770833C1.28472 0.256944 1.92528 0 2.6925 0H27.3075C28.0747 0 28.7153 0.256944 29.2292 0.770833C29.7431 1.28472 30 1.92528 30 2.6925V20.6408C30 21.4081 29.7431 22.0486 29.2292 22.5625C28.7153 23.0764 28.0747 23.3333 27.3075 23.3333H5.12833L0 28.4617ZM4.41667 21.6667H27.3075C27.5642 21.6667 27.7993 21.5599 28.0129 21.3463C28.2265 21.1326 28.3333 20.8975 28.3333 20.6408V2.6925C28.3333 2.43583 28.2265 2.20069 28.0129 1.98708C27.7993 1.77347 27.5642 1.66667 27.3075 1.66667H2.6925C2.43583 1.66667 2.20069 1.77347 1.98708 1.98708C1.77347 2.20069 1.66667 2.43583 1.66667 2.6925V24.4071L4.41667 21.6667Z" fill="#E3E3E3"/>
</svg>
