<svg width="67" height="67" viewBox="0 0 67 67" fill="none" xmlns="http://www.w3.org/2000/svg">
<path d="M11.8528 53.7134C15.0048 51.4457 18.3495 49.6524 21.8866 48.3335C25.4237 47.0139 29.2532 46.3542 33.375 46.3542C37.4968 46.3542 41.3263 47.0139 44.8634 48.3335C48.4005 49.6524 51.7452 51.4457 54.8972 53.7134C57.346 51.1793 59.3154 48.1867 60.8055 44.7355C62.2963 41.2836 63.0417 37.4968 63.0417 33.375C63.0417 25.1549 60.1523 18.1554 54.3734 12.3766C48.5946 6.59774 41.5951 3.70833 33.375 3.70833C25.1549 3.70833 18.1554 6.59774 12.3766 12.3766C6.59774 18.1554 3.70833 25.1549 3.70833 33.375C3.70833 37.4968 4.45371 41.2836 5.94446 44.7355C7.43459 48.1867 9.40403 51.1793 11.8528 53.7134ZM25.4698 32.0094C23.3233 29.8629 22.25 27.2278 22.25 24.1042C22.25 20.9805 23.3233 18.3454 25.4698 16.1989C27.6163 14.0524 30.2513 12.9792 33.375 12.9792C36.4987 12.9792 39.1337 14.0524 41.2802 16.1989C43.4268 18.3454 44.5 20.9805 44.5 24.1042C44.5 27.2278 43.4268 29.8629 41.2802 32.0094C39.1337 34.1559 36.4987 35.2292 33.375 35.2292C30.2513 35.2292 27.6163 34.1559 25.4698 32.0094ZM33.375 66.75C28.7204 66.75 24.3631 65.8835 20.3031 64.1505C16.2431 62.4174 12.7106 60.0487 9.70564 57.0444C6.70127 54.0394 4.33257 50.5069 2.59954 46.4469C0.866513 42.3869 0 38.0296 0 33.375C0 28.7204 0.866513 24.3631 2.59954 20.3031C4.33257 16.2431 6.70127 12.7106 9.70564 9.70564C12.7106 6.70127 16.2431 4.33257 20.3031 2.59954C24.3631 0.866512 28.7204 0 33.375 0C38.0296 0 42.3869 0.866512 46.4469 2.59954C50.5069 4.33257 54.0394 6.70127 57.0444 9.70564C60.0487 12.7106 62.4174 16.2431 64.1505 20.3031C65.8835 24.3631 66.75 28.7204 66.75 33.375C66.75 38.0296 65.8835 42.3869 64.1505 46.4469C62.4174 50.5069 60.0487 54.0394 57.0444 57.0444C54.0394 60.0487 50.5069 62.4174 46.4469 64.1505C42.3869 65.8835 38.0296 66.75 33.375 66.75ZM43.4663 61.2478C46.7748 60.0524 49.6342 58.4158 52.0446 56.3379C49.6342 54.4028 46.8458 52.8731 43.6795 51.7489C40.5132 50.6246 37.0784 50.0625 33.375 50.0625C29.6716 50.0625 26.2247 50.6129 23.0343 51.7136C19.8445 52.8144 17.0682 54.3558 14.7054 56.3379C17.1158 58.4158 19.9752 60.0524 23.2837 61.2478C26.5928 62.4437 29.9565 63.0417 33.375 63.0417C36.7935 63.0417 40.1572 62.4437 43.4663 61.2478ZM38.6455 29.3746C40.0763 27.9432 40.7917 26.1864 40.7917 24.1042C40.7917 22.0219 40.0763 20.2651 38.6455 18.8337C37.2141 17.4029 35.4572 16.6875 33.375 16.6875C31.2928 16.6875 29.5359 17.4029 28.1045 18.8337C26.6737 20.2651 25.9583 22.0219 25.9583 24.1042C25.9583 26.1864 26.6737 27.9432 28.1045 29.3746C29.5359 30.8054 31.2928 31.5208 33.375 31.5208C35.4572 31.5208 37.2141 30.8054 38.6455 29.3746Z" fill="#E3E3E3"/>
</svg>
