<svg width="37" height="37" viewBox="0 0 37 37" fill="none" xmlns="http://www.w3.org/2000/svg">
<path d="M16.5098 27.5164H20.1787V16.5098H16.5098V27.5164ZM19.6513 12.3136C20.0029 11.962 20.1787 11.5263 20.1787 11.0066C20.1787 10.4868 20.0029 10.0511 19.6513 9.69954C19.2997 9.34794 18.864 9.17214 18.3443 9.17214C17.8245 9.17214 17.3888 9.34794 17.0372 9.69954C16.6856 10.0511 16.5098 10.4868 16.5098 11.0066C16.5098 11.5263 16.6856 11.962 17.0372 12.3136C17.3888 12.6652 17.8245 12.841 18.3443 12.841C18.864 12.841 19.2997 12.6652 19.6513 12.3136ZM18.3443 36.6886C15.8067 36.6886 13.4219 36.207 11.19 35.2439C8.95812 34.2809 7.01669 32.9738 5.3657 31.3229C3.71472 29.6719 2.40769 27.7304 1.44461 25.4985C0.481537 23.2667 0 20.8819 0 18.3443C0 15.8067 0.481537 13.4219 1.44461 11.19C2.40769 8.95812 3.71472 7.01669 5.3657 5.3657C7.01669 3.71472 8.95812 2.40769 11.19 1.44461C13.4219 0.481537 15.8067 0 18.3443 0C20.8819 0 23.2667 0.481537 25.4985 1.44461C27.7304 2.40769 29.6719 3.71472 31.3229 5.3657C32.9738 7.01669 34.2809 8.95812 35.2439 11.19C36.207 13.4219 36.6886 15.8067 36.6886 18.3443C36.6886 20.8819 36.207 23.2667 35.2439 25.4985C34.2809 27.7304 32.9738 29.6719 31.3229 31.3229C29.6719 32.9738 27.7304 34.2809 25.4985 35.2439C23.2667 36.207 20.8819 36.6886 18.3443 36.6886Z" fill="#E4EB60"/>
</svg>
