<svg width="244" height="90" viewBox="0 0 244 90" fill="none" xmlns="http://www.w3.org/2000/svg">
<path d="M70.1252 7.68359C70.996 8.29828 71.8668 8.91296 72.6864 9.52765L65.5663 19.3626C64.7467 18.6967 63.8759 18.082 63.0051 17.5185L70.1252 7.68359Z" fill="white"/>
<path d="M70.1252 7.68359C70.996 8.29828 71.8668 8.91296 72.6864 9.52765L65.5663 19.3626C64.7467 18.6967 63.8759 18.082 63.0051 17.5185L70.1252 7.68359Z" fill="white"/>
<path d="M27.3533 3.63684L31.1438 15.2134C33.5513 14.0865 36.0613 13.2669 38.7249 12.7547L34.9344 1.1781C32.322 1.79279 29.7608 2.61236 27.3533 3.63684Z" fill="white"/>
<path d="M27.3533 3.63684L31.1438 15.2134C33.5513 14.0865 36.0613 13.2669 38.7249 12.7547L34.9344 1.1781C32.322 1.79279 29.7608 2.61236 27.3533 3.63684Z" fill="white"/>
<path d="M53.7849 13.3182C54.7069 13.5743 55.629 13.8816 56.4998 14.189L60.2391 2.66365C59.3683 2.35631 58.4463 2.04897 57.5242 1.79285L53.7849 13.3182Z" fill="white"/>
<path d="M53.7849 13.3182C54.7069 13.5743 55.629 13.8816 56.4998 14.189L60.2391 2.66365C59.3683 2.35631 58.4463 2.04897 57.5242 1.79285L53.7849 13.3182Z" fill="white"/>
<path d="M16.4426 28.7365C17.6208 26.6364 19.055 24.6899 20.6942 22.897L10.8592 15.7257C9.2713 17.5698 7.88826 19.5163 6.60767 21.5652L16.4426 28.7365Z" fill="white"/>
<path d="M16.4426 28.7365C17.6208 26.6364 19.055 24.6899 20.6942 22.897L10.8592 15.7257C9.2713 17.5698 7.88826 19.5163 6.60767 21.5652L16.4426 28.7365Z" fill="white"/>
<path d="M22.7433 20.8481C24.5874 19.1577 26.6876 17.621 28.8902 16.3916L21.7189 6.55664C19.5675 7.88846 17.4673 9.37394 15.572 11.0131L22.7433 20.8481Z" fill="white"/>
<path d="M22.7433 20.8481C24.5874 19.1577 26.6876 17.621 28.8902 16.3916L21.7189 6.55664C19.5675 7.88846 17.4673 9.37394 15.572 11.0131L22.7433 20.8481Z" fill="white"/>
<path d="M87.1828 29.3512L75.6575 33.0905C76.1185 34.2174 76.4771 35.3956 76.7844 36.625L88.3097 32.8856C87.9512 31.7075 87.5926 30.5293 87.1828 29.3512Z" fill="white"/>
<path d="M87.1828 29.3512L75.6575 33.0905C76.1185 34.2174 76.4771 35.3956 76.7844 36.625L88.3097 32.8856C87.9512 31.7075 87.5926 30.5293 87.1828 29.3512Z" fill="white"/>
<path d="M12.0888 45.0256C12.0888 43.9499 12.14 42.823 12.2425 41.7473H0.102448C3.89279e-07 42.823 0 43.8987 0 45.0256C0 46.1525 3.89279e-07 47.2282 0.102448 48.3039H12.2425C12.14 47.2282 12.0888 46.1525 12.0888 45.0256Z" fill="white"/>
<path d="M12.0888 45.0256C12.0888 43.9499 12.14 42.823 12.2425 41.7473H0.102448C3.89279e-07 42.823 0 43.8987 0 45.0256C0 46.1525 3.89279e-07 47.2282 0.102448 48.3039H12.2425C12.14 47.2282 12.0888 46.1525 12.0888 45.0256Z" fill="white"/>
<path d="M77.9111 45.0256C77.9111 45.6915 77.9111 46.4087 77.8599 47.0746H89.9999C89.9999 46.4087 89.9999 45.6915 89.9999 45.0256C89.9999 44.3597 89.9999 43.6426 89.9999 42.9767H77.8599C77.8599 43.6426 77.9111 44.3597 77.9111 45.0256Z" fill="white"/>
<path d="M77.9111 45.0256C77.9111 45.6915 77.9111 46.4087 77.8599 47.0746H89.9999C89.9999 46.4087 89.9999 45.6915 89.9999 45.0256C89.9999 44.3597 89.9999 43.6426 89.9999 42.9767H77.8599C77.8599 43.6426 77.9111 44.3597 77.9111 45.0256Z" fill="white"/>
<path d="M12.8058 38.1616C13.2668 35.9078 13.9839 33.7052 14.906 31.6562L3.32942 27.9169C2.45862 30.017 1.74148 32.1684 1.22925 34.4223L12.8058 38.1616Z" fill="white"/>
<path d="M12.8058 38.1616C13.2668 35.9078 13.9839 33.7052 14.906 31.6562L3.32942 27.9169C2.45862 30.017 1.74148 32.1684 1.22925 34.4223L12.8058 38.1616Z" fill="white"/>
<path d="M70.5349 24.3313C71.252 25.2533 71.9692 26.1753 72.5839 27.1998L82.4188 20.0797C81.7529 19.1065 81.087 18.1332 80.3699 17.2112L70.5349 24.3313Z" fill="white"/>
<path d="M70.5349 24.3313C71.252 25.2533 71.9692 26.1753 72.5839 27.1998L82.4188 20.0797C81.7529 19.1065 81.087 18.1332 80.3699 17.2112L70.5349 24.3313Z" fill="white"/>
<path d="M40.7742 0.204896V12.3961C41.3376 12.3449 43.0792 12.14 44.9745 12.14C46.8698 12.14 48.6114 12.3449 49.1748 12.3961V0.204896C48.5089 0.153672 46.7673 0 44.9745 0C43.1817 0 41.4401 0.153672 40.7742 0.204896Z" fill="white"/>
<path d="M40.7742 0.204896V12.3961C41.3376 12.3449 43.0792 12.14 44.9745 12.14C46.8698 12.14 48.6114 12.3449 49.1748 12.3961V0.204896C48.5089 0.153672 46.7673 0 44.9745 0C43.1817 0 41.4401 0.153672 40.7742 0.204896Z" fill="white"/>
<path d="M66.437 69.9203C65.2076 70.9448 63.927 71.918 62.5952 72.7888L69.7665 82.6238C71.0983 81.753 72.3789 80.7797 73.6083 79.7552L66.437 69.9203Z" fill="white"/>
<path d="M66.437 69.9203C65.2076 70.9448 63.927 71.918 62.5952 72.7888L69.7665 82.6238C71.0983 81.753 72.3789 80.7797 73.6083 79.7552L66.437 69.9203Z" fill="white"/>
<path d="M14.8039 58.0877C13.9843 56.1925 13.3696 54.246 12.9086 52.197L1.33203 55.9364C1.84427 57.9341 2.45895 59.9318 3.22731 61.8271L14.8039 58.0877Z" fill="white"/>
<path d="M14.8039 58.0877C13.9843 56.1925 13.3696 54.246 12.9086 52.197L1.33203 55.9364C1.84427 57.9341 2.45895 59.9318 3.22731 61.8271L14.8039 58.0877Z" fill="white"/>
<path d="M57.4217 75.5038C55.9362 76.1185 54.4507 76.5795 52.8628 76.9893L56.6021 88.5658C58.1388 88.156 59.6755 87.6438 61.161 87.0803L57.4217 75.5038Z" fill="white"/>
<path d="M57.4217 75.5038C55.9362 76.1185 54.4507 76.5795 52.8628 76.9893L56.6021 88.5658C58.1388 88.156 59.6755 87.6438 61.161 87.0803L57.4217 75.5038Z" fill="white"/>
<path d="M76.8868 53.119C76.5282 54.5021 76.0672 55.8851 75.5549 57.2169L87.1315 60.9562C87.6437 59.6244 88.1047 58.2414 88.4633 56.8584L76.938 53.119H76.8868Z" fill="white"/>
<path d="M76.8868 53.119C76.5282 54.5021 76.0672 55.8851 75.5549 57.2169L87.1315 60.9562C87.6437 59.6244 88.1047 58.2414 88.4633 56.8584L76.938 53.119H76.8868Z" fill="white"/>
<path d="M72.8914 62.4418C72.0718 63.7224 71.201 64.9517 70.2278 66.1299L80.0627 73.25C81.036 72.0718 81.9068 70.8425 82.7264 69.5619L72.8914 62.4418Z" fill="white"/>
<path d="M72.8914 62.4418C72.0718 63.7224 71.201 64.9517 70.2278 66.1299L80.0627 73.25C81.036 72.0718 81.9068 70.8425 82.7264 69.5619L72.8914 62.4418Z" fill="white"/>
<path d="M20.848 83.0336L27.9681 73.1986C26.3801 72.2254 24.8434 71.1497 23.4604 69.9203L16.2891 79.7552C17.7233 80.9334 19.2088 82.0603 20.7967 83.0336H20.848Z" fill="white"/>
<path d="M20.848 83.0336L27.9681 73.1986C26.3801 72.2254 24.8434 71.1497 23.4604 69.9203L16.2891 79.7552C17.7233 80.9334 19.2088 82.0603 20.7967 83.0336H20.848Z" fill="white"/>
<path d="M20.2334 66.642C18.9528 65.1565 17.7747 63.5686 16.7502 61.8782L6.91528 69.0495C7.93976 70.6887 9.1179 72.2766 10.3473 73.8133L20.1822 66.642H20.2334Z" fill="white"/>
<path d="M20.2334 66.642C18.9528 65.1565 17.7747 63.5686 16.7502 61.8782L6.91528 69.0495C7.93976 70.6887 9.1179 72.2766 10.3473 73.8133L20.1822 66.642H20.2334Z" fill="white"/>
<path d="M37.3932 77.0405C35.6516 76.6307 33.9613 76.0673 32.3221 75.4014L28.5828 86.9779C30.2219 87.6438 31.9123 88.1561 33.6027 88.6171L37.342 77.0405H37.3932Z" fill="white"/>
<path d="M37.3932 77.0405C35.6516 76.6307 33.9613 76.0673 32.3221 75.4014L28.5828 86.9779C30.2219 87.6438 31.9123 88.1561 33.6027 88.6171L37.342 77.0405H37.3932Z" fill="white"/>
<path d="M47.5355 89.9489V77.8088C46.716 77.8601 45.8452 77.9113 45.0256 77.9113C44.206 77.9113 43.3352 77.9113 42.5156 77.8088V89.9489C43.3352 89.9489 44.206 90.0001 45.0256 90.0001C45.8452 90.0001 46.716 90.0001 47.5355 89.9489Z" fill="white"/>
<path d="M47.5355 89.9489V77.8088C46.716 77.8601 45.8452 77.9113 45.0256 77.9113C44.206 77.9113 43.3352 77.9113 42.5156 77.8088V89.9489C43.3352 89.9489 44.206 90.0001 45.0256 90.0001C45.8452 90.0001 46.716 90.0001 47.5355 89.9489Z" fill="white"/>
<path d="M39.7495 25.8167C39.1348 25.9704 38.5202 26.1753 37.9567 26.3802L34.5759 15.9305C35.1906 15.7256 35.7541 15.5207 36.3688 15.3671L39.7495 25.8167ZM44.9743 14.1377C44.2572 14.1377 43.4889 14.1377 42.7717 14.2401V25.3045C43.4889 25.202 44.206 25.202 44.9743 25.202C45.7427 25.202 46.4598 25.202 47.177 25.3045V14.2401C46.4598 14.2401 45.7427 14.1377 44.9743 14.1377ZM56.5509 16.3403C55.2191 15.8281 53.8873 15.3671 52.5042 15.0085L49.0722 25.5094C50.5065 25.8167 51.8383 26.2777 53.1189 26.8412L56.5509 16.3403ZM64.7979 21.309C63.7222 20.4382 62.6465 19.6186 61.4684 18.9015L54.963 27.8144C56.1411 28.5316 57.268 29.2999 58.2925 30.2219L64.7979 21.309ZM27.6607 19.4137C27.0973 19.7723 26.585 20.1821 26.0216 20.5919L32.4758 29.5048C32.988 29.095 33.5515 28.6852 34.1149 28.3267L27.6607 19.4137ZM71.0984 28.5316C70.3813 27.4046 69.6129 26.3289 68.7421 25.3045L59.8292 31.8099C60.7 32.7831 61.5196 33.91 62.1855 35.037L71.0984 28.5316ZM15.2646 36.5737L25.7142 39.9544C25.9191 39.2373 26.1753 38.469 26.4314 37.803L15.9305 34.4223C15.6744 35.1394 15.4183 35.8565 15.2134 36.5737H15.2646ZM64.7979 46.8696H75.811C75.811 46.255 75.8622 45.6403 75.8622 45.0256C75.8622 44.4109 75.8622 43.7962 75.811 43.1815H64.7979C64.8491 43.7962 64.9003 44.4109 64.9003 45.0256C64.9003 45.6403 64.9004 46.255 64.7979 46.8696ZM20.6431 25.9704C20.1821 26.5338 19.7723 27.0973 19.3625 27.712L28.2754 34.1662C28.6852 33.5515 29.095 32.988 29.556 32.4246L20.6431 25.9704ZM25.1508 43.7962H14.1377C14.1377 44.206 14.1377 44.6158 14.1377 45.0256C14.1377 45.4354 14.1377 45.8452 14.1377 46.255H25.1508C25.1508 45.8452 25.1508 45.4354 25.1508 45.0256C25.1508 44.6158 25.1508 44.206 25.1508 43.7962ZM25.7142 69.152C26.4314 69.7154 27.1997 70.2789 27.9681 70.7911L34.4223 61.8782C33.6027 61.3659 32.8856 60.8025 32.1684 60.239L25.7142 69.152ZM34.0637 73.9158C34.9857 74.2743 35.9078 74.5817 36.881 74.8378L40.313 64.3369C39.3397 64.0808 38.4177 63.7735 37.4957 63.4149L34.0637 73.9158ZM19.2088 62.0831C19.7211 62.8514 20.2333 63.5686 20.7968 64.2345L29.7097 57.7803C29.1462 57.1144 28.634 56.346 28.1218 55.6289L19.2088 62.0831ZM15.2134 53.3751C15.4183 54.1946 15.7256 55.0142 15.9817 55.7826L26.4826 52.4018C26.1753 51.6334 25.9191 50.8139 25.7142 49.9943L15.2646 53.3751H15.2134ZM44.9743 75.9135C45.4866 75.9135 45.9988 75.9135 46.5111 75.9135V64.9004C45.9988 64.9004 45.4866 64.9516 44.9743 64.9516C44.4621 64.9516 43.9499 64.9516 43.4376 64.9004V75.9135C43.9499 75.9135 44.4621 75.9135 44.9743 75.9135ZM74.9402 37.342C74.6329 36.0614 74.2231 34.8321 73.762 33.6539L63.2612 37.0859C63.7734 38.2641 64.1832 39.4934 64.4393 40.774L74.9402 37.342ZM53.0165 74.889C54.0409 74.6329 55.0654 74.2743 56.0899 73.9158L52.6579 63.4149C51.6846 63.8247 50.6602 64.132 49.5845 64.3881L53.0165 74.889ZM73.762 56.2948C74.2231 55.1679 74.5816 54.041 74.889 52.8628L64.3881 49.4308C64.132 50.609 63.7734 51.7871 63.2612 52.8628L73.762 56.2948ZM68.947 64.5418C69.6642 63.671 70.3813 62.6978 70.996 61.7245L62.083 55.2191C61.4684 56.1924 60.8025 57.1656 60.0341 58.0364L68.947 64.5418ZM61.7757 70.996C62.6977 70.3813 63.6198 69.7154 64.4906 69.0495L57.9852 60.1366C57.1656 60.8537 56.2436 61.5196 55.2703 62.0831L61.7245 70.996H61.7757Z" fill="white"/>
<path d="M105.521 36.8298H111.77V73.045H105.521V36.8298Z" fill="white"/>
<path d="M119.146 55.1679C119.146 44.2573 127.393 36.0103 138.099 36.0103C148.805 36.0103 150.085 38.7251 153.569 43.6938L148.6 47.4844C145.68 43.5401 142.043 41.6961 138.048 41.6961C131.133 41.6961 125.652 47.177 125.652 54.963C125.652 62.749 131.286 68.23 138.15 68.23C145.014 68.23 146.551 66.0273 149.368 62.1856L154.132 65.6688C150.649 70.9448 144.809 73.9158 138.099 73.9158C127.188 73.9158 119.197 65.9761 119.197 55.1679H119.146Z" fill="white"/>
<path d="M194.496 56.3461H164.274C164.787 63.9784 169.858 68.3324 177.131 68.3324C184.405 68.3324 186.044 66.3347 189.118 62.1856L193.626 65.6176C190.142 70.8424 184.303 73.8646 177.029 73.8646C165.709 73.8646 157.923 66.2323 157.923 55.168C157.923 44.1036 166.067 35.9078 177.08 35.9078C188.093 35.9078 194.752 42.9767 194.752 53.58C194.752 64.1833 194.701 55.4241 194.548 56.2949L194.496 56.3461ZM164.633 50.9164H188.298C187.376 44.6671 183.227 41.3376 177.029 41.3376C170.831 41.3376 166.067 44.8208 164.633 50.9164Z" fill="white"/>
<path d="M199.619 68.1275L203.614 63.4149C207.046 66.642 211.554 68.2811 215.754 68.2811C219.954 68.2811 223.54 66.0785 223.54 63.0563C223.54 60.0341 221.952 59.2145 217.342 58.1388L210.99 56.7046C203.717 55.0654 200.643 51.9408 200.643 47.0233C200.643 42.1058 206.073 35.959 214.525 35.959C222.977 35.959 225.794 38.0079 229.226 41.7473L225.026 46.1013C222.055 43.1303 218.315 41.5936 214.115 41.5936C209.915 41.5936 206.79 43.5913 206.79 46.5111C206.79 49.4308 208.122 49.9943 213.142 51.1212L219.493 52.5555C226.818 54.1946 229.687 57.5242 229.687 62.5441C229.687 67.564 224.462 73.8645 215.549 73.8645C206.636 73.8645 203.307 71.6619 199.67 68.0762L199.619 68.1275Z" fill="white"/>
<path d="M236.858 36.8298H243.107V73.045H236.858V36.8298Z" fill="white"/>
<path d="M105.521 23.0506V16.7501H107.416V22.897C107.416 24.7922 108.338 25.7143 109.926 25.7143C111.514 25.7143 112.436 24.7922 112.436 22.897V16.7501H114.331V23.0506C114.331 25.8679 112.641 27.4559 109.926 27.4559C107.211 27.4559 105.521 25.8679 105.521 23.0506Z" fill="white"/>
<path d="M123.961 22.6409V27.251H122.169V22.9995C122.169 21.6677 121.554 21.0018 120.529 21.0018C119.505 21.0018 119.198 21.2579 118.634 21.9238V27.251H116.841V19.5675H118.634V20.2334C119.249 19.7212 120.12 19.4138 120.99 19.4138C122.783 19.4138 123.961 20.592 123.961 22.6921V22.6409Z" fill="white"/>
<path d="M126.113 17.3648C126.113 16.7502 126.625 16.2379 127.291 16.2379C127.957 16.2379 128.418 16.7502 128.418 17.3648C128.418 17.9795 127.905 18.543 127.291 18.543C126.676 18.543 126.113 18.0307 126.113 17.3648ZM126.369 19.5675H128.161V27.251H126.369V19.5675Z" fill="white"/>
<path d="M137.997 19.5675L134.821 27.2511H132.874L129.698 19.5675H131.696L133.848 25.0484L135.999 19.5675H137.997Z" fill="white"/>
<path d="M146.756 23.8703H140.66C140.814 25.2021 141.685 25.9192 143.016 25.9192C144.348 25.9192 144.656 25.6119 145.27 24.8435L146.551 25.8168C145.731 26.8925 144.502 27.5072 142.965 27.5072C140.455 27.5072 138.816 25.868 138.816 23.5117C138.816 21.1554 140.507 19.4138 142.914 19.4138C145.322 19.4138 146.756 20.8993 146.756 23.2044C146.756 25.5094 146.756 23.6654 146.756 23.8703ZM140.763 22.4872H145.014C144.809 21.4115 144.092 20.8993 143.016 20.8993C141.941 20.8993 141.07 21.4628 140.814 22.4872H140.763Z" fill="white"/>
<path d="M153.569 19.465L153.466 21.1554C153.21 21.1554 152.954 21.1042 152.749 21.1042C151.878 21.1042 151.11 21.514 150.649 22.2823V27.3023H148.856V19.6187H150.649V20.4383C151.161 19.7724 151.981 19.4138 152.8 19.4138C153.62 19.4138 153.313 19.4138 153.62 19.5163L153.569 19.465Z" fill="white"/>
<path d="M154.798 26.329L155.72 24.9972C156.54 25.6119 157.41 25.9192 158.281 25.9192C159.152 25.9192 159.613 25.5607 159.613 25.0996C159.613 24.6386 159.357 24.485 158.537 24.2801L157.206 23.9727C155.669 23.6142 155.003 22.9483 155.003 21.8726C155.003 20.7969 156.181 19.4138 158.076 19.4138C159.972 19.4138 160.484 19.8236 161.252 20.5407L160.279 21.8213C159.562 21.2579 158.794 20.9505 157.974 20.9505C157.154 20.9505 156.745 21.2579 156.745 21.7189C156.745 22.1799 157.001 22.2823 157.82 22.4872L159.152 22.7946C160.74 23.1531 161.355 23.8703 161.355 24.946C161.355 26.0217 160.177 27.4559 158.179 27.4559C156.181 27.4559 155.566 26.9949 154.747 26.329H154.798Z" fill="white"/>
<path d="M163.045 17.3648C163.045 16.7502 163.557 16.2379 164.223 16.2379C164.889 16.2379 165.35 16.7502 165.35 17.3648C165.35 17.9795 164.838 18.543 164.223 18.543C163.609 18.543 163.045 18.0307 163.045 17.3648ZM163.301 19.5675H165.094V27.251H163.301V19.5675Z" fill="white"/>
<path d="M174.98 16.1355V27.251H173.187V26.6876C172.624 27.1998 171.804 27.4559 170.985 27.4559C168.884 27.4559 167.143 25.7656 167.143 23.4093C167.143 21.053 168.884 19.3626 170.985 19.3626C173.085 19.3626 172.624 19.6187 173.187 20.1309V16.1355H174.98ZM173.187 24.8948V21.9238C172.675 21.3091 171.958 21.053 171.241 21.053C169.96 21.053 168.987 21.975 168.987 23.4093C168.987 24.8435 169.96 25.7656 171.241 25.7656C172.521 25.7656 172.675 25.4582 173.187 24.8435V24.8948Z" fill="white"/>
<path d="M184.815 19.5674V27.251H183.022V26.6875C182.459 27.1998 181.639 27.4559 180.82 27.4559C178.719 27.4559 176.978 25.7655 176.978 23.4092C176.978 21.0529 178.719 19.3625 180.82 19.3625C182.92 19.3625 182.459 19.6187 183.022 20.1309V19.5674H184.815ZM183.022 24.8947V21.9237C182.51 21.309 181.793 21.0529 181.076 21.0529C179.795 21.0529 178.822 21.975 178.822 23.4092C178.822 24.8435 179.795 25.7655 181.076 25.7655C182.356 25.7655 182.51 25.4582 183.022 24.8435V24.8947Z" fill="white"/>
<path d="M194.701 16.1355V27.251H192.908V26.6876C192.345 27.1998 191.525 27.4559 190.706 27.4559C188.606 27.4559 186.864 25.7656 186.864 23.4093C186.864 21.053 188.606 19.3626 190.706 19.3626C192.806 19.3626 192.345 19.6187 192.908 20.1309V16.1355H194.701ZM192.908 24.8948V21.9238C192.396 21.3091 191.679 21.053 190.962 21.053C189.681 21.053 188.708 21.975 188.708 23.4093C188.708 24.8435 189.681 25.7656 190.962 25.7656C192.242 25.7656 192.396 25.4582 192.908 24.8435V24.8948Z" fill="white"/>
</svg>
